<svg xmlns="http://www.w3.org/2000/svg" xmlns:xlink="http://www.w3.org/1999/xlink" width="1920" height="1080" viewBox="0 0 1920 1080">
  <defs>
    <linearGradient id="linear-gradient" x1="0.5" x2="0.5" y2="1" gradientUnits="objectBoundingBox">
      <stop offset="0" stop-color="#f60808"/>
      <stop offset="1" stop-color="#330303" stop-opacity="0.949"/>
    </linearGradient>
    <clipPath id="clip-Web_1920_3">
      <rect width="1920" height="1080"/>
    </clipPath>
  </defs>
  <g id="Web_1920_3" data-name="Web 1920 – 3" clip-path="url(#clip-Web_1920_3)">
    <rect width="1920" height="1080" fill="#fff"/>
    <path id="Path_28" data-name="Path 28" d="M4602.426,631.553v21.119h-25.444V632.553Z" transform="translate(-3303 242)" fill="#0a0a0a" stroke="#0a0a0a" stroke-width="1"/>
    <g id="Group_16" data-name="Group 16">
      <path id="Path_18" data-name="Path 18" d="M548.323,793.806h25.81V376.385l192.082-122.9V540.246l-42.786,30.041L766.214,589.4V814.714H696.573V646.3l-33.227-13.2V814.714H548.323Z" transform="translate(-6 80)" fill="#0a0a0a" stroke="#fe093b" stroke-width="1"/>
      <path id="Path_20" data-name="Path 20" d="M2822.025,82l8,9,14-8,1,569.005h110l-12-257,26,97,30-97-8,257h94l-1-575.005,15,9,4-12-116-75-18,244-16-243Z" transform="translate(-2045 242)" fill="#0a0a0a" stroke="#1d1d1d" stroke-width="1"/>
      <path id="Path_23" data-name="Path 23" d="M548.323,793.806h25.81V376.385l192.082-122.9V540.246l-42.786,30.041L766.214,589.4V814.714H696.573V646.3l-33.227-13.2V814.714H548.323Z" transform="translate(-6 80)" fill="#0a0a0a" stroke="#080808" stroke-width="1"/>
      <path id="Path_19" data-name="Path 19" d="M662.8,403.422l33.136-18.935V517.625L662.8,548.986Z" transform="translate(-6 80)" fill="#fff" stroke="#fff" stroke-width="1"/>
      <path id="Path_31" data-name="Path 31" d="M5308.073,163v50.25L4960.222-11.83,4601.937,213.253V163L4960.222-65.911Z" transform="translate(-4035 200)" stroke="#707070" stroke-width="1" fill="url(#linear-gradient)"/>
      <g id="Group_15" data-name="Group 15" transform="translate(-31 80)">
        <g id="Group_14" data-name="Group 14" transform="translate(680)">
          <path id="Path_27" data-name="Path 27" d="M4507.214,214,4313.055,87.489V652.008h93v-181l31,14v167h70.158v-226l-42.157-18,42.157-29Z" transform="translate(-3882 163)" fill="#0a0a0a" stroke="#0a0a0a" stroke-width="1"/>
        </g>
        <path id="Subtraction_1" data-name="Subtraction 1" d="M-4028,331.891V163.572l35.155,16.455V310.2L-4028,331.89Z" transform="translate(5233.758 219.985)" fill="#fff"/>
      </g>
    </g>
  </g>
</svg>
